<svg width="991" height="608" viewBox="0 0 991 608" fill="none" xmlns="http://www.w3.org/2000/svg">
<rect width="989.184" height="608" fill="white"/>
<g clip-path="url(#clip0_111_70)">
<g opacity="0.3">
<mask id="mask0_111_70" style="mask-type:alpha" maskUnits="userSpaceOnUse" x="8" y="102" width="9" height="8">
<path d="M12.4369 109.051C14.4241 109.051 16.035 107.475 16.035 105.53C16.035 103.586 14.4241 102.009 12.4369 102.009C10.4497 102.009 8.83875 103.586 8.83875 105.53C8.83875 107.475 10.4497 109.051 12.4369 109.051Z" fill="url(#paint0_linear_111_70)"/>
</mask>
<g mask="url(#mask0_111_70)">
<path d="M12.4369 109.051C14.4241 109.051 16.035 107.475 16.035 105.53C16.035 103.586 14.4241 102.009 12.4369 102.009C10.4497 102.009 8.83875 103.586 8.83875 105.53C8.83875 107.475 10.4497 109.051 12.4369 109.051Z" fill="url(#paint1_linear_111_70)"/>
</g>
<mask id="mask1_111_70" style="mask-type:alpha" maskUnits="userSpaceOnUse" x="29" y="102" width="8" height="8">
<path d="M33.2761 109.051C35.2633 109.051 36.8742 107.475 36.8742 105.53C36.8742 103.586 35.2633 102.009 33.2761 102.009C31.2889 102.009 29.678 103.586 29.678 105.53C29.678 107.475 31.2889 109.051 33.2761 109.051Z" fill="url(#paint2_linear_111_70)"/>
</mask>
<g mask="url(#mask1_111_70)">
<path d="M33.2761 109.051C35.2633 109.051 36.8742 107.475 36.8742 105.53C36.8742 103.586 35.2633 102.009 33.2761 102.009C31.2889 102.009 29.678 103.586 29.678 105.53C29.678 107.475 31.2889 109.051 33.2761 109.051Z" fill="url(#paint3_linear_111_70)"/>
</g>
<mask id="mask2_111_70" style="mask-type:alpha" maskUnits="userSpaceOnUse" x="8" y="119" width="9" height="8">
<path d="M12.4369 126.732C14.4241 126.732 16.035 125.155 16.035 123.21C16.035 121.266 14.4241 119.689 12.4369 119.689C10.4497 119.689 8.83875 121.266 8.83875 123.21C8.83875 125.155 10.4497 126.732 12.4369 126.732Z" fill="url(#paint4_linear_111_70)"/>
</mask>
<g mask="url(#mask2_111_70)">
<path d="M12.4369 126.732C14.4241 126.732 16.035 125.155 16.035 123.21C16.035 121.266 14.4241 119.689 12.4369 119.689C10.4497 119.689 8.83875 121.266 8.83875 123.21C8.83875 125.155 10.4497 126.732 12.4369 126.732Z" fill="url(#paint5_linear_111_70)"/>
</g>
<mask id="mask3_111_70" style="mask-type:alpha" maskUnits="userSpaceOnUse" x="29" y="119" width="8" height="8">
<path d="M33.2761 126.732C35.2633 126.732 36.8742 125.155 36.8742 123.21C36.8742 121.266 35.2633 119.689 33.2761 119.689C31.2889 119.689 29.678 121.266 29.678 123.21C29.678 125.155 31.2889 126.732 33.2761 126.732Z" fill="url(#paint6_linear_111_70)"/>
</mask>
<g mask="url(#mask3_111_70)">
<path d="M33.2761 126.732C35.2633 126.732 36.8742 125.155 36.8742 123.21C36.8742 121.266 35.2633 119.689 33.2761 119.689C31.2889 119.689 29.678 121.266 29.678 123.21C29.678 125.155 31.2889 126.732 33.2761 126.732Z" fill="url(#paint7_linear_111_70)"/>
</g>
<mask id="mask4_111_70" style="mask-type:alpha" maskUnits="userSpaceOnUse" x="8" y="137" width="9" height="8">
<path d="M12.4369 144.375C14.4241 144.375 16.035 142.798 16.035 140.853C16.035 138.908 14.4241 137.332 12.4369 137.332C10.4497 137.332 8.83875 138.908 8.83875 140.853C8.83875 142.798 10.4497 144.375 12.4369 144.375Z" fill="url(#paint8_linear_111_70)"/>
</mask>
<g mask="url(#mask4_111_70)">
<path d="M12.4369 144.375C14.4241 144.375 16.035 142.798 16.035 140.853C16.035 138.908 14.4241 137.332 12.4369 137.332C10.4497 137.332 8.83875 138.908 8.83875 140.853C8.83875 142.798 10.4497 144.375 12.4369 144.375Z" fill="url(#paint9_linear_111_70)"/>
</g>
<mask id="mask5_111_70" style="mask-type:alpha" maskUnits="userSpaceOnUse" x="29" y="137" width="8" height="8">
<path d="M33.2761 144.375C35.2633 144.375 36.8742 142.798 36.8742 140.853C36.8742 138.908 35.2633 137.332 33.2761 137.332C31.2889 137.332 29.678 138.908 29.678 140.853C29.678 142.798 31.2889 144.375 33.2761 144.375Z" fill="url(#paint10_linear_111_70)"/>
</mask>
<g mask="url(#mask5_111_70)">
<path d="M33.2761 144.375C35.2633 144.375 36.8742 142.798 36.8742 140.853C36.8742 138.908 35.2633 137.332 33.2761 137.332C31.2889 137.332 29.678 138.908 29.678 140.853C29.678 142.798 31.2889 144.375 33.2761 144.375Z" fill="url(#paint11_linear_111_70)"/>
</g>
<mask id="mask6_111_70" style="mask-type:alpha" maskUnits="userSpaceOnUse" x="8" y="155" width="9" height="8">
<path d="M12.4369 162.054C14.4241 162.054 16.035 160.478 16.035 158.533C16.035 156.588 14.4241 155.012 12.4369 155.012C10.4497 155.012 8.83875 156.588 8.83875 158.533C8.83875 160.478 10.4497 162.054 12.4369 162.054Z" fill="url(#paint12_linear_111_70)"/>
</mask>
<g mask="url(#mask6_111_70)">
<path d="M12.4369 162.054C14.4241 162.054 16.035 160.478 16.035 158.533C16.035 156.588 14.4241 155.012 12.4369 155.012C10.4497 155.012 8.83875 156.588 8.83875 158.533C8.83875 160.478 10.4497 162.054 12.4369 162.054Z" fill="url(#paint13_linear_111_70)"/>
</g>
<mask id="mask7_111_70" style="mask-type:alpha" maskUnits="userSpaceOnUse" x="29" y="155" width="8" height="8">
<path d="M33.2761 162.054C35.2633 162.054 36.8742 160.478 36.8742 158.533C36.8742 156.588 35.2633 155.012 33.2761 155.012C31.2889 155.012 29.678 156.588 29.678 158.533C29.678 160.478 31.2889 162.054 33.2761 162.054Z" fill="url(#paint14_linear_111_70)"/>
</mask>
<g mask="url(#mask7_111_70)">
<path d="M33.2761 162.054C35.2633 162.054 36.8742 160.478 36.8742 158.533C36.8742 156.588 35.2633 155.012 33.2761 155.012C31.2889 155.012 29.678 156.588 29.678 158.533C29.678 160.478 31.2889 162.054 33.2761 162.054Z" fill="url(#paint15_linear_111_70)"/>
</g>
<mask id="mask8_111_70" style="mask-type:alpha" maskUnits="userSpaceOnUse" x="8" y="172" width="9" height="8">
<path d="M12.4369 179.697C14.4241 179.697 16.035 178.121 16.035 176.176C16.035 174.232 14.4241 172.655 12.4369 172.655C10.4497 172.655 8.83875 174.232 8.83875 176.176C8.83875 178.121 10.4497 179.697 12.4369 179.697Z" fill="url(#paint16_linear_111_70)"/>
</mask>
<g mask="url(#mask8_111_70)">
<path d="M12.4369 179.697C14.4241 179.697 16.035 178.121 16.035 176.176C16.035 174.232 14.4241 172.655 12.4369 172.655C10.4497 172.655 8.83875 174.232 8.83875 176.176C8.83875 178.121 10.4497 179.697 12.4369 179.697Z" fill="url(#paint17_linear_111_70)"/>
</g>
<mask id="mask9_111_70" style="mask-type:alpha" maskUnits="userSpaceOnUse" x="29" y="172" width="8" height="8">
<path d="M33.2761 179.697C35.2633 179.697 36.8742 178.121 36.8742 176.176C36.8742 174.232 35.2633 172.655 33.2761 172.655C31.2889 172.655 29.678 174.232 29.678 176.176C29.678 178.121 31.2889 179.697 33.2761 179.697Z" fill="url(#paint18_linear_111_70)"/>
</mask>
<g mask="url(#mask9_111_70)">
<path d="M33.2761 179.697C35.2633 179.697 36.8742 178.121 36.8742 176.176C36.8742 174.232 35.2633 172.655 33.2761 172.655C31.2889 172.655 29.678 174.232 29.678 176.176C29.678 178.121 31.2889 179.697 33.2761 179.697Z" fill="url(#paint19_linear_111_70)"/>
</g>
</g>
<path d="M29.5924 548.551C45.5557 548.551 58.4966 535.848 58.4966 520.178C58.4966 504.508 45.5557 491.805 29.5924 491.805C13.6291 491.805 0.688232 504.508 0.688232 520.178C0.688232 535.848 13.6291 548.551 29.5924 548.551Z" fill="url(#paint20_radial_111_70)"/>
<path d="M480.704 481.671C488.115 481.671 494.124 475.773 494.124 468.498C494.124 461.222 488.115 455.324 480.704 455.324C473.292 455.324 467.284 461.222 467.284 468.498C467.284 475.773 473.292 481.671 480.704 481.671Z" fill="url(#paint21_radial_111_70)"/>
<path d="M624.536 163.484C647.911 163.484 666.86 144.883 666.86 121.938C666.86 98.9922 647.911 80.3911 624.536 80.3911C601.162 80.3911 582.213 98.9922 582.213 121.938C582.213 144.883 601.162 163.484 624.536 163.484Z" fill="url(#paint22_radial_111_70)"/>
<path d="M760.145 -115.027L1151.21 74.832L902.429 568.619C892.485 588.35 868.13 596.434 848.034 586.676L555.047 444.435C520.978 427.895 507.019 387.376 523.869 353.932L760.145 -115.027Z" fill="url(#paint23_linear_111_70)" fill-opacity="0.7"/>
</g>
<defs>
<linearGradient id="paint0_linear_111_70" x1="38.27" y1="169.739" x2="-9.31131" y2="46.3208" gradientUnits="userSpaceOnUse">
<stop/>
<stop offset="1" stop-color="white"/>
</linearGradient>
<linearGradient id="paint1_linear_111_70" x1="38.27" y1="169.739" x2="-9.31131" y2="46.3208" gradientUnits="userSpaceOnUse">
<stop stop-color="#97C3F9"/>
<stop offset="1" stop-color="#93C1F9"/>
</linearGradient>
<linearGradient id="paint2_linear_111_70" x1="56.3037" y1="162.787" x2="8.72238" y2="39.3683" gradientUnits="userSpaceOnUse">
<stop/>
<stop offset="1" stop-color="white"/>
</linearGradient>
<linearGradient id="paint3_linear_111_70" x1="56.3037" y1="162.787" x2="8.72238" y2="39.3683" gradientUnits="userSpaceOnUse">
<stop stop-color="#97C3F9"/>
<stop offset="1" stop-color="#93C1F9"/>
</linearGradient>
<linearGradient id="paint4_linear_111_70" x1="32.1159" y1="172.112" x2="-15.4645" y2="48.694" gradientUnits="userSpaceOnUse">
<stop/>
<stop offset="1" stop-color="white"/>
</linearGradient>
<linearGradient id="paint5_linear_111_70" x1="32.1159" y1="172.112" x2="-15.4645" y2="48.694" gradientUnits="userSpaceOnUse">
<stop stop-color="#97C3F9"/>
<stop offset="1" stop-color="#93C1F9"/>
</linearGradient>
<linearGradient id="paint6_linear_111_70" x1="50.1496" y1="165.159" x2="2.56921" y2="41.7416" gradientUnits="userSpaceOnUse">
<stop/>
<stop offset="1" stop-color="white"/>
</linearGradient>
<linearGradient id="paint7_linear_111_70" x1="50.1496" y1="165.159" x2="2.56921" y2="41.7416" gradientUnits="userSpaceOnUse">
<stop stop-color="#97C3F9"/>
<stop offset="1" stop-color="#93C1F9"/>
</linearGradient>
<linearGradient id="paint8_linear_111_70" x1="25.9618" y1="174.484" x2="-21.6195" y2="51.0657" gradientUnits="userSpaceOnUse">
<stop/>
<stop offset="1" stop-color="white"/>
</linearGradient>
<linearGradient id="paint9_linear_111_70" x1="25.9618" y1="174.484" x2="-21.6195" y2="51.0657" gradientUnits="userSpaceOnUse">
<stop stop-color="#97C3F9"/>
<stop offset="1" stop-color="#93C1F9"/>
</linearGradient>
<linearGradient id="paint10_linear_111_70" x1="43.9955" y1="167.532" x2="-3.58587" y2="44.1132" gradientUnits="userSpaceOnUse">
<stop/>
<stop offset="1" stop-color="white"/>
</linearGradient>
<linearGradient id="paint11_linear_111_70" x1="43.9955" y1="167.532" x2="-3.58587" y2="44.1132" gradientUnits="userSpaceOnUse">
<stop stop-color="#97C3F9"/>
<stop offset="1" stop-color="#93C1F9"/>
</linearGradient>
<linearGradient id="paint12_linear_111_70" x1="19.8077" y1="176.858" x2="-27.7736" y2="53.4387" gradientUnits="userSpaceOnUse">
<stop/>
<stop offset="1" stop-color="white"/>
</linearGradient>
<linearGradient id="paint13_linear_111_70" x1="19.8077" y1="176.858" x2="-27.7736" y2="53.4387" gradientUnits="userSpaceOnUse">
<stop stop-color="#97C3F9"/>
<stop offset="1" stop-color="#93C1F9"/>
</linearGradient>
<linearGradient id="paint14_linear_111_70" x1="37.8413" y1="169.905" x2="-9.73995" y2="46.4861" gradientUnits="userSpaceOnUse">
<stop/>
<stop offset="1" stop-color="white"/>
</linearGradient>
<linearGradient id="paint15_linear_111_70" x1="37.8413" y1="169.905" x2="-9.73995" y2="46.4861" gradientUnits="userSpaceOnUse">
<stop stop-color="#97C3F9"/>
<stop offset="1" stop-color="#93C1F9"/>
</linearGradient>
<linearGradient id="paint16_linear_111_70" x1="13.6536" y1="179.229" x2="-33.9277" y2="55.8107" gradientUnits="userSpaceOnUse">
<stop/>
<stop offset="1" stop-color="white"/>
</linearGradient>
<linearGradient id="paint17_linear_111_70" x1="13.6536" y1="179.229" x2="-33.9277" y2="55.8107" gradientUnits="userSpaceOnUse">
<stop stop-color="#97C3F9"/>
<stop offset="1" stop-color="#93C1F9"/>
</linearGradient>
<linearGradient id="paint18_linear_111_70" x1="31.6873" y1="172.277" x2="-15.894" y2="48.8583" gradientUnits="userSpaceOnUse">
<stop/>
<stop offset="1" stop-color="white"/>
</linearGradient>
<linearGradient id="paint19_linear_111_70" x1="31.6873" y1="172.277" x2="-15.894" y2="48.8583" gradientUnits="userSpaceOnUse">
<stop stop-color="#97C3F9"/>
<stop offset="1" stop-color="#93C1F9"/>
</linearGradient>
<radialGradient id="paint20_radial_111_70" cx="0" cy="0" r="1" gradientUnits="userSpaceOnUse" gradientTransform="translate(41.1541 528.577) rotate(-147.861) scale(47.789 47.4127)">
<stop stop-color="#019966" stop-opacity="0.6"/>
<stop offset="1" stop-color="white" stop-opacity="0.5"/>
</radialGradient>
<radialGradient id="paint21_radial_111_70" cx="0" cy="0" r="1" gradientUnits="userSpaceOnUse" gradientTransform="translate(486.072 472.397) rotate(-147.861) scale(22.1878 22.0131)">
<stop stop-color="#019966" stop-opacity="0.6"/>
<stop offset="1" stop-color="white" stop-opacity="0.5"/>
</radialGradient>
<radialGradient id="paint22_radial_111_70" cx="0" cy="0" r="1" gradientUnits="userSpaceOnUse" gradientTransform="translate(641.466 134.236) rotate(-147.861) scale(69.977 69.4261)">
<stop stop-color="#019966" stop-opacity="0.6"/>
<stop offset="1" stop-color="white" stop-opacity="0.5"/>
</radialGradient>
<linearGradient id="paint23_linear_111_70" x1="955.675" y1="-20.0976" x2="696.753" y2="513.231" gradientUnits="userSpaceOnUse">
<stop stop-color="#019966"/>
<stop offset="1" stop-color="#095073" stop-opacity="0"/>
</linearGradient>
<clipPath id="clip0_111_70">
<rect width="991" height="608" fill="white"/>
</clipPath>
</defs>
</svg>
