<svg width="1280" height="608" viewBox="0 0 1280 608" fill="none" xmlns="http://www.w3.org/2000/svg">
<rect width="1280" height="608" fill="white"/>
<g clip-path="url(#clip0_111_70)">
<g opacity="0.3">
<mask id="mask0_111_70" style="mask-type:alpha" maskUnits="userSpaceOnUse" x="11" y="102" width="10" height="8">
<path d="M16.0637 109.051C18.6304 109.051 20.7111 107.475 20.7111 105.53C20.7111 103.586 18.6304 102.009 16.0637 102.009C13.497 102.009 11.4163 103.586 11.4163 105.53C11.4163 107.475 13.497 109.051 16.0637 109.051Z" fill="url(#paint0_linear_111_70)"/>
</mask>
<g mask="url(#mask0_111_70)">
<path d="M16.0637 109.051C18.6304 109.051 20.7111 107.475 20.7111 105.53C20.7111 103.586 18.6304 102.009 16.0637 102.009C13.497 102.009 11.4163 103.586 11.4163 105.53C11.4163 107.475 13.497 109.051 16.0637 109.051Z" fill="url(#paint1_linear_111_70)"/>
</g>
<mask id="mask1_111_70" style="mask-type:alpha" maskUnits="userSpaceOnUse" x="38" y="102" width="10" height="8">
<path d="M42.9801 109.051C45.5469 109.051 47.6276 107.475 47.6276 105.53C47.6276 103.586 45.5469 102.009 42.9801 102.009C40.4135 102.009 38.3328 103.586 38.3328 105.53C38.3328 107.475 40.4135 109.051 42.9801 109.051Z" fill="url(#paint2_linear_111_70)"/>
</mask>
<g mask="url(#mask1_111_70)">
<path d="M42.9801 109.051C45.5469 109.051 47.6276 107.475 47.6276 105.53C47.6276 103.586 45.5469 102.009 42.9801 102.009C40.4135 102.009 38.3328 103.586 38.3328 105.53C38.3328 107.475 40.4135 109.051 42.9801 109.051Z" fill="url(#paint3_linear_111_70)"/>
</g>
<mask id="mask2_111_70" style="mask-type:alpha" maskUnits="userSpaceOnUse" x="11" y="119" width="10" height="8">
<path d="M16.0637 126.732C18.6304 126.732 20.7111 125.155 20.7111 123.21C20.7111 121.266 18.6304 119.689 16.0637 119.689C13.497 119.689 11.4163 121.266 11.4163 123.21C11.4163 125.155 13.497 126.732 16.0637 126.732Z" fill="url(#paint4_linear_111_70)"/>
</mask>
<g mask="url(#mask2_111_70)">
<path d="M16.0637 126.732C18.6304 126.732 20.7111 125.155 20.7111 123.21C20.7111 121.266 18.6304 119.689 16.0637 119.689C13.497 119.689 11.4163 121.266 11.4163 123.21C11.4163 125.155 13.497 126.732 16.0637 126.732Z" fill="url(#paint5_linear_111_70)"/>
</g>
<mask id="mask3_111_70" style="mask-type:alpha" maskUnits="userSpaceOnUse" x="38" y="119" width="10" height="8">
<path d="M42.9801 126.732C45.5469 126.732 47.6276 125.155 47.6276 123.21C47.6276 121.266 45.5469 119.689 42.9801 119.689C40.4135 119.689 38.3328 121.266 38.3328 123.21C38.3328 125.155 40.4135 126.732 42.9801 126.732Z" fill="url(#paint6_linear_111_70)"/>
</mask>
<g mask="url(#mask3_111_70)">
<path d="M42.9801 126.732C45.5469 126.732 47.6276 125.155 47.6276 123.21C47.6276 121.266 45.5469 119.689 42.9801 119.689C40.4135 119.689 38.3328 121.266 38.3328 123.21C38.3328 125.155 40.4135 126.732 42.9801 126.732Z" fill="url(#paint7_linear_111_70)"/>
</g>
<mask id="mask4_111_70" style="mask-type:alpha" maskUnits="userSpaceOnUse" x="11" y="137" width="10" height="8">
<path d="M16.0637 144.375C18.6304 144.375 20.7111 142.798 20.7111 140.853C20.7111 138.908 18.6304 137.332 16.0637 137.332C13.497 137.332 11.4163 138.908 11.4163 140.853C11.4163 142.798 13.497 144.375 16.0637 144.375Z" fill="url(#paint8_linear_111_70)"/>
</mask>
<g mask="url(#mask4_111_70)">
<path d="M16.0637 144.375C18.6304 144.375 20.7111 142.798 20.7111 140.853C20.7111 138.908 18.6304 137.332 16.0637 137.332C13.497 137.332 11.4163 138.908 11.4163 140.853C11.4163 142.798 13.497 144.375 16.0637 144.375Z" fill="url(#paint9_linear_111_70)"/>
</g>
<mask id="mask5_111_70" style="mask-type:alpha" maskUnits="userSpaceOnUse" x="38" y="137" width="10" height="8">
<path d="M42.9801 144.375C45.5469 144.375 47.6276 142.798 47.6276 140.853C47.6276 138.908 45.5469 137.332 42.9801 137.332C40.4135 137.332 38.3328 138.908 38.3328 140.853C38.3328 142.798 40.4135 144.375 42.9801 144.375Z" fill="url(#paint10_linear_111_70)"/>
</mask>
<g mask="url(#mask5_111_70)">
<path d="M42.9801 144.375C45.5469 144.375 47.6276 142.798 47.6276 140.853C47.6276 138.908 45.5469 137.332 42.9801 137.332C40.4135 137.332 38.3328 138.908 38.3328 140.853C38.3328 142.798 40.4135 144.375 42.9801 144.375Z" fill="url(#paint11_linear_111_70)"/>
</g>
<mask id="mask6_111_70" style="mask-type:alpha" maskUnits="userSpaceOnUse" x="11" y="155" width="10" height="8">
<path d="M16.0637 162.054C18.6304 162.054 20.7111 160.478 20.7111 158.533C20.7111 156.588 18.6304 155.012 16.0637 155.012C13.497 155.012 11.4163 156.588 11.4163 158.533C11.4163 160.478 13.497 162.054 16.0637 162.054Z" fill="url(#paint12_linear_111_70)"/>
</mask>
<g mask="url(#mask6_111_70)">
<path d="M16.0637 162.054C18.6304 162.054 20.7111 160.478 20.7111 158.533C20.7111 156.588 18.6304 155.012 16.0637 155.012C13.497 155.012 11.4163 156.588 11.4163 158.533C11.4163 160.478 13.497 162.054 16.0637 162.054Z" fill="url(#paint13_linear_111_70)"/>
</g>
<mask id="mask7_111_70" style="mask-type:alpha" maskUnits="userSpaceOnUse" x="38" y="155" width="10" height="8">
<path d="M42.9801 162.054C45.5469 162.054 47.6276 160.478 47.6276 158.533C47.6276 156.588 45.5469 155.012 42.9801 155.012C40.4135 155.012 38.3328 156.588 38.3328 158.533C38.3328 160.478 40.4135 162.054 42.9801 162.054Z" fill="url(#paint14_linear_111_70)"/>
</mask>
<g mask="url(#mask7_111_70)">
<path d="M42.9801 162.054C45.5469 162.054 47.6276 160.478 47.6276 158.533C47.6276 156.588 45.5469 155.012 42.9801 155.012C40.4135 155.012 38.3328 156.588 38.3328 158.533C38.3328 160.478 40.4135 162.054 42.9801 162.054Z" fill="url(#paint15_linear_111_70)"/>
</g>
<mask id="mask8_111_70" style="mask-type:alpha" maskUnits="userSpaceOnUse" x="11" y="172" width="10" height="8">
<path d="M16.0637 179.697C18.6304 179.697 20.7111 178.121 20.7111 176.176C20.7111 174.232 18.6304 172.655 16.0637 172.655C13.497 172.655 11.4163 174.232 11.4163 176.176C11.4163 178.121 13.497 179.697 16.0637 179.697Z" fill="url(#paint16_linear_111_70)"/>
</mask>
<g mask="url(#mask8_111_70)">
<path d="M16.0637 179.697C18.6304 179.697 20.7111 178.121 20.7111 176.176C20.7111 174.232 18.6304 172.655 16.0637 172.655C13.497 172.655 11.4163 174.232 11.4163 176.176C11.4163 178.121 13.497 179.697 16.0637 179.697Z" fill="url(#paint17_linear_111_70)"/>
</g>
<mask id="mask9_111_70" style="mask-type:alpha" maskUnits="userSpaceOnUse" x="38" y="172" width="10" height="8">
<path d="M42.9801 179.697C45.5469 179.697 47.6276 178.121 47.6276 176.176C47.6276 174.232 45.5469 172.655 42.9801 172.655C40.4135 172.655 38.3328 174.232 38.3328 176.176C38.3328 178.121 40.4135 179.697 42.9801 179.697Z" fill="url(#paint18_linear_111_70)"/>
</mask>
<g mask="url(#mask9_111_70)">
<path d="M42.9801 179.697C45.5469 179.697 47.6276 178.121 47.6276 176.176C47.6276 174.232 45.5469 172.655 42.9801 172.655C40.4135 172.655 38.3328 174.232 38.3328 176.176C38.3328 178.121 40.4135 179.697 42.9801 179.697Z" fill="url(#paint19_linear_111_70)"/>
</g>
</g>
<path d="M38.2222 548.551C58.8409 548.551 75.5556 535.848 75.5556 520.178C75.5556 504.508 58.8409 491.805 38.2222 491.805C17.6036 491.805 0.888916 504.508 0.888916 520.178C0.888916 535.848 17.6036 548.551 38.2222 548.551Z" fill="url(#paint20_radial_111_70)"/>
<path d="M1262.67 641.102C1293.35 641.102 1318.22 622.199 1318.22 598.88C1318.22 575.561 1293.35 556.658 1262.67 556.658C1231.98 556.658 1207.11 575.561 1207.11 598.88C1207.11 622.199 1231.98 641.102 1262.67 641.102Z" fill="url(#paint21_radial_111_70)"/>
<path d="M620.889 481.671C630.462 481.671 638.222 475.773 638.222 468.498C638.222 461.222 630.462 455.324 620.889 455.324C611.316 455.324 603.556 461.222 603.556 468.498C603.556 475.773 611.316 481.671 620.889 481.671Z" fill="url(#paint22_radial_111_70)"/>
<path d="M806.667 163.484C836.858 163.484 861.333 144.883 861.333 121.938C861.333 98.9922 836.858 80.3911 806.667 80.3911C776.475 80.3911 752 98.9922 752 121.938C752 144.883 776.475 163.484 806.667 163.484Z" fill="url(#paint23_radial_111_70)"/>
<path d="M180.089 629.213C170.489 629.213 161.54 628.042 153.244 625.7C145.067 623.268 137.955 619.845 131.911 615.431C125.867 611.018 121.126 605.838 117.689 599.893C114.371 593.949 112.711 587.418 112.711 580.302C112.711 573.187 114.371 566.656 117.689 560.711C121.126 554.766 125.867 549.587 131.911 545.173C138.074 540.76 145.244 537.382 153.422 535.04C161.6 532.608 170.548 531.392 180.267 531.392C191.051 531.392 200.771 532.833 209.422 535.716C218.193 538.508 225.54 542.652 231.467 548.146L212.978 561.117C208.711 557.423 203.971 554.676 198.756 552.875C193.54 550.983 187.851 550.037 181.689 550.037C175.882 550.037 170.548 550.758 165.689 552.199C160.829 553.64 156.622 555.712 153.067 558.414C149.511 561.117 146.726 564.314 144.711 568.007C142.815 571.7 141.867 575.798 141.867 580.302C141.867 584.806 142.815 588.904 144.711 592.597C146.726 596.291 149.511 599.488 153.067 602.19C156.622 604.893 160.829 606.964 165.689 608.405C170.548 609.846 175.882 610.567 181.689 610.567C187.851 610.567 193.54 609.667 198.756 607.865C203.971 605.973 208.711 603.136 212.978 599.353L231.467 612.324C225.54 617.818 218.193 622.006 209.422 624.889C200.771 627.772 190.993 629.213 180.089 629.213ZM331.867 629.213C322.029 629.213 312.904 627.997 304.489 625.565C296.193 623.133 288.963 619.71 282.8 615.296C276.755 610.883 272.015 605.703 268.578 599.758C265.259 593.813 263.6 587.328 263.6 580.302C263.6 573.277 265.259 566.791 268.578 560.846C272.015 554.901 276.815 549.722 282.978 545.309C289.14 540.895 296.371 537.472 304.667 535.04C312.963 532.608 321.971 531.392 331.689 531.392C341.526 531.392 350.533 532.608 358.711 535.04C367.007 537.472 374.178 540.895 380.222 545.309C386.385 549.722 391.185 554.901 394.622 560.846C398.06 566.701 399.778 573.187 399.778 580.302C399.778 587.328 398.06 593.859 394.622 599.893C391.185 605.838 386.385 611.018 380.222 615.431C374.178 619.755 367.007 623.133 358.711 625.565C350.533 627.997 341.585 629.213 331.867 629.213ZM331.689 610.567C337.259 610.567 342.355 609.846 346.978 608.405C351.718 606.964 355.867 604.893 359.422 602.19C362.978 599.488 365.704 596.291 367.6 592.597C369.615 588.904 370.622 584.806 370.622 580.302C370.622 575.798 369.615 571.7 367.6 568.007C365.704 564.314 362.978 561.117 359.422 558.414C355.985 555.712 351.896 553.64 347.155 552.199C342.415 550.758 337.259 550.037 331.689 550.037C326.118 550.037 320.963 550.758 316.222 552.199C311.6 553.64 307.511 555.712 303.956 558.414C300.4 561.117 297.615 564.314 295.6 568.007C293.704 571.7 292.755 575.798 292.755 580.302C292.755 584.716 293.704 588.814 295.6 592.597C297.615 596.291 300.34 599.488 303.778 602.19C307.333 604.893 311.482 606.964 316.222 608.405C320.963 609.846 326.118 610.567 331.689 610.567ZM444.533 627.591V533.013H468.356L521.333 599.758H508.711L560.8 533.013H584.444L584.8 627.591H557.778L557.6 564.494H562.578L520.978 617.593H508L465.511 564.494H471.555V627.591H444.533ZM637.436 627.591V533.013H691.303C702.443 533.013 712.044 534.41 720.103 537.202C728.162 539.904 734.384 543.822 738.77 548.957C743.155 554.091 745.347 560.216 745.347 567.332C745.347 574.357 743.155 580.437 738.77 585.572C734.384 590.706 728.162 594.669 720.103 597.461C712.044 600.164 702.443 601.515 691.303 601.515H653.436L666.236 591.652V627.591H637.436ZM666.236 594.084L653.436 583.68H689.703C698.592 583.68 705.228 582.239 709.614 579.357C713.999 576.474 716.192 572.466 716.192 567.332C716.192 562.108 713.999 558.054 709.614 555.172C705.228 552.289 698.592 550.848 689.703 550.848H653.436L666.236 540.445V594.084ZM766.414 627.591L821.881 533.013H850.325L905.973 627.591H875.747L830.236 544.093H841.614L795.925 627.591H766.414ZM794.147 607.325L801.792 590.706H865.792L873.614 607.325H794.147ZM941.991 627.591V533.013H965.813L1039.24 601.109H1027.68V533.013H1056.12V627.591H1032.48L958.88 559.495H970.435V627.591H941.991ZM1139.61 627.591V588.949L1146.19 602.19L1091.43 533.013H1122.01L1163.96 586.112H1146.36L1188.5 533.013H1216.76L1162.01 602.19L1168.41 588.949V627.591H1139.61Z" fill="#F7F9FC"/>
<path d="M981.822 -115.027L1486.93 74.832L1165.6 568.619C1152.76 588.35 1121.3 596.434 1095.34 586.676L716.913 444.435C672.908 427.895 654.878 387.376 676.642 353.932L981.822 -115.027Z" fill="url(#paint24_linear_111_70)" fill-opacity="0.7"/>
</g>
<defs>
<linearGradient id="paint0_linear_111_70" x1="49.4304" y1="169.739" x2="10.5781" y2="39.5736" gradientUnits="userSpaceOnUse">
<stop/>
<stop offset="1" stop-color="white"/>
</linearGradient>
<linearGradient id="paint1_linear_111_70" x1="49.4304" y1="169.739" x2="10.5781" y2="39.5736" gradientUnits="userSpaceOnUse">
<stop stop-color="#97C3F9"/>
<stop offset="1" stop-color="#93C1F9"/>
</linearGradient>
<linearGradient id="paint2_linear_111_70" x1="72.7232" y1="162.787" x2="33.8709" y2="32.6211" gradientUnits="userSpaceOnUse">
<stop/>
<stop offset="1" stop-color="white"/>
</linearGradient>
<linearGradient id="paint3_linear_111_70" x1="72.7232" y1="162.787" x2="33.8709" y2="32.6211" gradientUnits="userSpaceOnUse">
<stop stop-color="#97C3F9"/>
<stop offset="1" stop-color="#93C1F9"/>
</linearGradient>
<linearGradient id="paint4_linear_111_70" x1="41.4816" y1="172.112" x2="2.63014" y2="41.9471" gradientUnits="userSpaceOnUse">
<stop/>
<stop offset="1" stop-color="white"/>
</linearGradient>
<linearGradient id="paint5_linear_111_70" x1="41.4816" y1="172.112" x2="2.63014" y2="41.9471" gradientUnits="userSpaceOnUse">
<stop stop-color="#97C3F9"/>
<stop offset="1" stop-color="#93C1F9"/>
</linearGradient>
<linearGradient id="paint6_linear_111_70" x1="64.7744" y1="165.159" x2="25.9229" y2="34.9946" gradientUnits="userSpaceOnUse">
<stop/>
<stop offset="1" stop-color="white"/>
</linearGradient>
<linearGradient id="paint7_linear_111_70" x1="64.7744" y1="165.159" x2="25.9229" y2="34.9946" gradientUnits="userSpaceOnUse">
<stop stop-color="#97C3F9"/>
<stop offset="1" stop-color="#93C1F9"/>
</linearGradient>
<linearGradient id="paint8_linear_111_70" x1="33.5328" y1="174.484" x2="-5.31947" y2="44.3185" gradientUnits="userSpaceOnUse">
<stop/>
<stop offset="1" stop-color="white"/>
</linearGradient>
<linearGradient id="paint9_linear_111_70" x1="33.5328" y1="174.484" x2="-5.31947" y2="44.3185" gradientUnits="userSpaceOnUse">
<stop stop-color="#97C3F9"/>
<stop offset="1" stop-color="#93C1F9"/>
</linearGradient>
<linearGradient id="paint10_linear_111_70" x1="56.8256" y1="167.532" x2="17.9733" y2="37.366" gradientUnits="userSpaceOnUse">
<stop/>
<stop offset="1" stop-color="white"/>
</linearGradient>
<linearGradient id="paint11_linear_111_70" x1="56.8256" y1="167.532" x2="17.9733" y2="37.366" gradientUnits="userSpaceOnUse">
<stop stop-color="#97C3F9"/>
<stop offset="1" stop-color="#93C1F9"/>
</linearGradient>
<linearGradient id="paint12_linear_111_70" x1="25.5841" y1="176.858" x2="-13.2682" y2="46.6915" gradientUnits="userSpaceOnUse">
<stop/>
<stop offset="1" stop-color="white"/>
</linearGradient>
<linearGradient id="paint13_linear_111_70" x1="25.5841" y1="176.858" x2="-13.2682" y2="46.6915" gradientUnits="userSpaceOnUse">
<stop stop-color="#97C3F9"/>
<stop offset="1" stop-color="#93C1F9"/>
</linearGradient>
<linearGradient id="paint14_linear_111_70" x1="48.8768" y1="169.905" x2="10.0245" y2="39.739" gradientUnits="userSpaceOnUse">
<stop/>
<stop offset="1" stop-color="white"/>
</linearGradient>
<linearGradient id="paint15_linear_111_70" x1="48.8768" y1="169.905" x2="10.0245" y2="39.739" gradientUnits="userSpaceOnUse">
<stop stop-color="#97C3F9"/>
<stop offset="1" stop-color="#93C1F9"/>
</linearGradient>
<linearGradient id="paint16_linear_111_70" x1="17.6353" y1="179.229" x2="-21.217" y2="49.0636" gradientUnits="userSpaceOnUse">
<stop/>
<stop offset="1" stop-color="white"/>
</linearGradient>
<linearGradient id="paint17_linear_111_70" x1="17.6353" y1="179.229" x2="-21.217" y2="49.0636" gradientUnits="userSpaceOnUse">
<stop stop-color="#97C3F9"/>
<stop offset="1" stop-color="#93C1F9"/>
</linearGradient>
<linearGradient id="paint18_linear_111_70" x1="40.9281" y1="172.277" x2="2.07581" y2="42.1111" gradientUnits="userSpaceOnUse">
<stop/>
<stop offset="1" stop-color="white"/>
</linearGradient>
<linearGradient id="paint19_linear_111_70" x1="40.9281" y1="172.277" x2="2.07581" y2="42.1111" gradientUnits="userSpaceOnUse">
<stop stop-color="#97C3F9"/>
<stop offset="1" stop-color="#93C1F9"/>
</linearGradient>
<radialGradient id="paint20_radial_111_70" cx="0" cy="0" r="1" gradientUnits="userSpaceOnUse" gradientTransform="translate(53.1556 528.577) rotate(-154.062) scale(58.1215 50.3526)">
<stop stop-color="#019966" stop-opacity="0.6"/>
<stop offset="1" stop-color="white" stop-opacity="0.5"/>
</radialGradient>
<radialGradient id="paint21_radial_111_70" cx="0" cy="0" r="1" gradientUnits="userSpaceOnUse" gradientTransform="translate(1284.89 611.378) rotate(-154.062) scale(86.4906 74.9296)">
<stop stop-color="#019966" stop-opacity="0.6"/>
<stop offset="1" stop-color="white" stop-opacity="0.5"/>
</radialGradient>
<radialGradient id="paint22_radial_111_70" cx="0" cy="0" r="1" gradientUnits="userSpaceOnUse" gradientTransform="translate(627.822 472.397) rotate(-154.062) scale(26.985 23.378)">
<stop stop-color="#019966" stop-opacity="0.6"/>
<stop offset="1" stop-color="white" stop-opacity="0.5"/>
</radialGradient>
<radialGradient id="paint23_radial_111_70" cx="0" cy="0" r="1" gradientUnits="userSpaceOnUse" gradientTransform="translate(828.533 134.236) rotate(-154.062) scale(85.1069 73.7309)">
<stop stop-color="#019966" stop-opacity="0.6"/>
<stop offset="1" stop-color="white" stop-opacity="0.5"/>
</radialGradient>
<linearGradient id="paint24_linear_111_70" x1="1234.37" y1="-20.0976" x2="1017.33" y2="557.352" gradientUnits="userSpaceOnUse">
<stop stop-color="#019966"/>
<stop offset="1" stop-color="#095073" stop-opacity="0"/>
</linearGradient>
<clipPath id="clip0_111_70">
<rect width="1280" height="608" fill="white"/>
</clipPath>
</defs>
</svg>
