<svg width="1440" height="781" viewBox="0 0 1440 781" fill="none" xmlns="http://www.w3.org/2000/svg">
<g opacity="0.3">
<mask id="mask0_102_2" style="mask-type:alpha" maskUnits="userSpaceOnUse" x="12" y="32" width="12" height="11">
<path d="M18.0717 42.425C20.9592 42.425 23.3 40.0912 23.3 37.2124C23.3 34.3337 20.9592 32 18.0717 32C15.1841 32 12.8433 34.3337 12.8433 37.2124C12.8433 40.0912 15.1841 42.425 18.0717 42.425Z" fill="url(#paint0_linear_102_2)"/>
</mask>
<g mask="url(#mask0_102_2)">
<path d="M18.0717 42.425C20.9592 42.425 23.3 40.0912 23.3 37.2124C23.3 34.3337 20.9592 32 18.0717 32C15.1841 32 12.8433 34.3337 12.8433 37.2124C12.8433 40.0912 15.1841 42.425 18.0717 42.425Z" fill="url(#paint1_linear_102_2)"/>
</g>
<mask id="mask1_102_2" style="mask-type:alpha" maskUnits="userSpaceOnUse" x="43" y="32" width="11" height="11">
<path d="M48.3526 42.425C51.2402 42.425 53.581 40.0912 53.581 37.2124C53.581 34.3337 51.2402 32 48.3526 32C45.4651 32 43.1243 34.3337 43.1243 37.2124C43.1243 40.0912 45.4651 42.425 48.3526 42.425Z" fill="url(#paint2_linear_102_2)"/>
</mask>
<g mask="url(#mask1_102_2)">
<path d="M48.3526 42.425C51.2402 42.425 53.581 40.0912 53.581 37.2124C53.581 34.3337 51.2402 32 48.3526 32C45.4651 32 43.1243 34.3337 43.1243 37.2124C43.1243 40.0912 45.4651 42.425 48.3526 42.425Z" fill="url(#paint3_linear_102_2)"/>
</g>
<mask id="mask2_102_2" style="mask-type:alpha" maskUnits="userSpaceOnUse" x="12" y="58" width="12" height="11">
<path d="M18.0717 68.5958C20.9592 68.5958 23.3 66.2621 23.3 63.3833C23.3 60.5046 20.9592 58.1709 18.0717 58.1709C15.1841 58.1709 12.8433 60.5046 12.8433 63.3833C12.8433 66.2621 15.1841 68.5958 18.0717 68.5958Z" fill="url(#paint4_linear_102_2)"/>
</mask>
<g mask="url(#mask2_102_2)">
<path d="M18.0717 68.5958C20.9592 68.5958 23.3 66.2621 23.3 63.3833C23.3 60.5046 20.9592 58.1709 18.0717 58.1709C15.1841 58.1709 12.8433 60.5046 12.8433 63.3833C12.8433 66.2621 15.1841 68.5958 18.0717 68.5958Z" fill="url(#paint5_linear_102_2)"/>
</g>
<mask id="mask3_102_2" style="mask-type:alpha" maskUnits="userSpaceOnUse" x="43" y="58" width="11" height="11">
<path d="M48.3526 68.5958C51.2402 68.5958 53.581 66.2621 53.581 63.3833C53.581 60.5046 51.2402 58.1709 48.3526 58.1709C45.4651 58.1709 43.1243 60.5046 43.1243 63.3833C43.1243 66.2621 45.4651 68.5958 48.3526 68.5958Z" fill="url(#paint6_linear_102_2)"/>
</mask>
<g mask="url(#mask3_102_2)">
<path d="M48.3526 68.5958C51.2402 68.5958 53.581 66.2621 53.581 63.3833C53.581 60.5046 51.2402 58.1709 48.3526 58.1709C45.4651 58.1709 43.1243 60.5046 43.1243 63.3833C43.1243 66.2621 45.4651 68.5958 48.3526 68.5958Z" fill="url(#paint7_linear_102_2)"/>
</g>
<mask id="mask4_102_2" style="mask-type:alpha" maskUnits="userSpaceOnUse" x="12" y="84" width="12" height="11">
<path d="M18.0717 94.7126C20.9592 94.7126 23.3 92.3789 23.3 89.5001C23.3 86.6213 20.9592 84.2876 18.0717 84.2876C15.1841 84.2876 12.8433 86.6213 12.8433 89.5001C12.8433 92.3789 15.1841 94.7126 18.0717 94.7126Z" fill="url(#paint8_linear_102_2)"/>
</mask>
<g mask="url(#mask4_102_2)">
<path d="M18.0717 94.7126C20.9592 94.7126 23.3 92.3789 23.3 89.5001C23.3 86.6213 20.9592 84.2876 18.0717 84.2876C15.1841 84.2876 12.8433 86.6213 12.8433 89.5001C12.8433 92.3789 15.1841 94.7126 18.0717 94.7126Z" fill="url(#paint9_linear_102_2)"/>
</g>
<mask id="mask5_102_2" style="mask-type:alpha" maskUnits="userSpaceOnUse" x="43" y="84" width="11" height="11">
<path d="M48.3526 94.7126C51.2402 94.7126 53.581 92.3789 53.581 89.5001C53.581 86.6213 51.2402 84.2876 48.3526 84.2876C45.4651 84.2876 43.1243 86.6213 43.1243 89.5001C43.1243 92.3789 45.4651 94.7126 48.3526 94.7126Z" fill="url(#paint10_linear_102_2)"/>
</mask>
<g mask="url(#mask5_102_2)">
<path d="M48.3526 94.7126C51.2402 94.7126 53.581 92.3789 53.581 89.5001C53.581 86.6213 51.2402 84.2876 48.3526 84.2876C45.4651 84.2876 43.1243 86.6213 43.1243 89.5001C43.1243 92.3789 45.4651 94.7126 48.3526 94.7126Z" fill="url(#paint11_linear_102_2)"/>
</g>
<mask id="mask6_102_2" style="mask-type:alpha" maskUnits="userSpaceOnUse" x="12" y="110" width="12" height="11">
<path d="M18.0717 120.883C20.9592 120.883 23.3 118.55 23.3 115.671C23.3 112.792 20.9592 110.458 18.0717 110.458C15.1841 110.458 12.8433 112.792 12.8433 115.671C12.8433 118.55 15.1841 120.883 18.0717 120.883Z" fill="url(#paint12_linear_102_2)"/>
</mask>
<g mask="url(#mask6_102_2)">
<path d="M18.0717 120.883C20.9592 120.883 23.3 118.55 23.3 115.671C23.3 112.792 20.9592 110.458 18.0717 110.458C15.1841 110.458 12.8433 112.792 12.8433 115.671C12.8433 118.55 15.1841 120.883 18.0717 120.883Z" fill="url(#paint13_linear_102_2)"/>
</g>
<mask id="mask7_102_2" style="mask-type:alpha" maskUnits="userSpaceOnUse" x="43" y="110" width="11" height="11">
<path d="M48.3526 120.883C51.2402 120.883 53.581 118.55 53.581 115.671C53.581 112.792 51.2402 110.458 48.3526 110.458C45.4651 110.458 43.1243 112.792 43.1243 115.671C43.1243 118.55 45.4651 120.883 48.3526 120.883Z" fill="url(#paint14_linear_102_2)"/>
</mask>
<g mask="url(#mask7_102_2)">
<path d="M48.3526 120.883C51.2402 120.883 53.581 118.55 53.581 115.671C53.581 112.792 51.2402 110.458 48.3526 110.458C45.4651 110.458 43.1243 112.792 43.1243 115.671C43.1243 118.55 45.4651 120.883 48.3526 120.883Z" fill="url(#paint15_linear_102_2)"/>
</g>
<mask id="mask8_102_2" style="mask-type:alpha" maskUnits="userSpaceOnUse" x="12" y="136" width="12" height="11">
<path d="M18.0717 147C20.9592 147 23.3 144.666 23.3 141.787C23.3 138.909 20.9592 136.575 18.0717 136.575C15.1841 136.575 12.8433 138.909 12.8433 141.787C12.8433 144.666 15.1841 147 18.0717 147Z" fill="url(#paint16_linear_102_2)"/>
</mask>
<g mask="url(#mask8_102_2)">
<path d="M18.0717 147C20.9592 147 23.3 144.666 23.3 141.787C23.3 138.909 20.9592 136.575 18.0717 136.575C15.1841 136.575 12.8433 138.909 12.8433 141.787C12.8433 144.666 15.1841 147 18.0717 147Z" fill="url(#paint17_linear_102_2)"/>
</g>
<mask id="mask9_102_2" style="mask-type:alpha" maskUnits="userSpaceOnUse" x="43" y="136" width="11" height="11">
<path d="M48.3526 147C51.2402 147 53.581 144.666 53.581 141.787C53.581 138.909 51.2402 136.575 48.3526 136.575C45.4651 136.575 43.1243 138.909 43.1243 141.787C43.1243 144.666 45.4651 147 48.3526 147Z" fill="url(#paint18_linear_102_2)"/>
</mask>
<g mask="url(#mask9_102_2)">
<path d="M48.3526 147C51.2402 147 53.581 144.666 53.581 141.787C53.581 138.909 51.2402 136.575 48.3526 136.575C45.4651 136.575 43.1243 138.909 43.1243 141.787C43.1243 144.666 45.4651 147 48.3526 147Z" fill="url(#paint19_linear_102_2)"/>
</g>
</g>
<circle cx="1420.5" cy="767.5" r="62.5" fill="url(#paint20_radial_102_2)"/>
<circle cx="698.5" cy="574.5" r="19.5" fill="url(#paint21_radial_102_2)"/>
<circle cx="43" cy="651" r="42" fill="url(#paint22_radial_102_2)"/>
<circle cx="907.5" cy="61.5" r="61.5" fill="url(#paint23_radial_102_2)"/>
<path d="M202.6 812.4C191.8 812.4 181.733 810.667 172.4 807.2C163.2 803.6 155.2 798.533 148.4 792C141.6 785.467 136.267 777.8 132.4 769C128.667 760.2 126.8 750.533 126.8 740C126.8 729.467 128.667 719.8 132.4 711C136.267 702.2 141.6 694.533 148.4 688C155.333 681.467 163.4 676.467 172.6 673C181.8 669.4 191.867 667.6 202.8 667.6C214.933 667.6 225.867 669.733 235.6 674C245.467 678.133 253.733 684.267 260.4 692.4L239.6 711.6C234.8 706.133 229.467 702.067 223.6 699.4C217.733 696.6 211.333 695.2 204.4 695.2C197.867 695.2 191.867 696.267 186.4 698.4C180.933 700.533 176.2 703.6 172.2 707.6C168.2 711.6 165.067 716.333 162.8 721.8C160.667 727.267 159.6 733.333 159.6 740C159.6 746.667 160.667 752.733 162.8 758.2C165.067 763.667 168.2 768.4 172.2 772.4C176.2 776.4 180.933 779.467 186.4 781.6C191.867 783.733 197.867 784.8 204.4 784.8C211.333 784.8 217.733 783.467 223.6 780.8C229.467 778 234.8 773.8 239.6 768.2L260.4 787.4C253.733 795.533 245.467 801.733 235.6 806C225.867 810.267 214.867 812.4 202.6 812.4ZM373.35 812.4C362.283 812.4 352.017 810.6 342.55 807C333.217 803.4 325.083 798.333 318.15 791.8C311.35 785.267 306.017 777.6 302.15 768.8C298.417 760 296.55 750.4 296.55 740C296.55 729.6 298.417 720 302.15 711.2C306.017 702.4 311.417 694.733 318.35 688.2C325.283 681.667 333.417 676.6 342.75 673C352.083 669.4 362.217 667.6 373.15 667.6C384.217 667.6 394.35 669.4 403.55 673C412.883 676.6 420.95 681.667 427.75 688.2C434.683 694.733 440.083 702.4 443.95 711.2C447.817 719.867 449.75 729.467 449.75 740C449.75 750.4 447.817 760.067 443.95 769C440.083 777.8 434.683 785.467 427.75 792C420.95 798.4 412.883 803.4 403.55 807C394.35 810.6 384.283 812.4 373.35 812.4ZM373.15 784.8C379.417 784.8 385.15 783.733 390.35 781.6C395.683 779.467 400.35 776.4 404.35 772.4C408.35 768.4 411.417 763.667 413.55 758.2C415.817 752.733 416.95 746.667 416.95 740C416.95 733.333 415.817 727.267 413.55 721.8C411.417 716.333 408.35 711.6 404.35 707.6C400.483 703.6 395.883 700.533 390.55 698.4C385.217 696.267 379.417 695.2 373.15 695.2C366.883 695.2 361.083 696.267 355.75 698.4C350.55 700.533 345.95 703.6 341.95 707.6C337.95 711.6 334.817 716.333 332.55 721.8C330.417 727.267 329.35 733.333 329.35 740C329.35 746.533 330.417 752.6 332.55 758.2C334.817 763.667 337.883 768.4 341.75 772.4C345.75 776.4 350.417 779.467 355.75 781.6C361.083 783.733 366.883 784.8 373.15 784.8ZM500.1 810V670H526.9L586.5 768.8H572.3L630.9 670H657.5L657.9 810H627.5L627.3 716.6H632.9L586.1 795.2H571.5L523.7 716.6H530.5V810H500.1ZM717.116 810V670H777.716C790.249 670 801.049 672.067 810.116 676.2C819.182 680.2 826.182 686 831.116 693.6C836.049 701.2 838.516 710.267 838.516 720.8C838.516 731.2 836.049 740.2 831.116 747.8C826.182 755.4 819.182 761.267 810.116 765.4C801.049 769.4 790.249 771.4 777.716 771.4H735.116L749.516 756.8V810H717.116ZM749.516 760.4L735.116 745H775.916C785.916 745 793.382 742.867 798.316 738.6C803.249 734.333 805.716 728.4 805.716 720.8C805.716 713.067 803.249 707.067 798.316 702.8C793.382 698.533 785.916 696.4 775.916 696.4H735.116L749.516 681V760.4ZM862.216 810L924.616 670H956.616L1019.22 810H985.216L934.016 686.4H946.816L895.416 810H862.216ZM893.416 780L902.016 755.4H974.016L982.816 780H893.416ZM1059.74 810V670H1086.54L1169.14 770.8H1156.14V670H1188.14V810H1161.54L1078.74 709.2H1091.74V810H1059.74ZM1282.06 810V752.8L1289.46 772.4L1227.86 670H1262.26L1309.46 748.6H1289.66L1337.06 670H1368.86L1307.26 772.4L1314.46 752.8V810H1282.06Z" fill="#F7F9FC"/>
<defs>
<linearGradient id="paint0_linear_102_2" x1="55.6092" y1="132.259" x2="-15.7924" y2="-49.5444" gradientUnits="userSpaceOnUse">
<stop/>
<stop offset="1" stop-color="white"/>
</linearGradient>
<linearGradient id="paint1_linear_102_2" x1="55.6092" y1="132.259" x2="-15.7924" y2="-49.5444" gradientUnits="userSpaceOnUse">
<stop stop-color="#97C3F9"/>
<stop offset="1" stop-color="#93C1F9"/>
</linearGradient>
<linearGradient id="paint2_linear_102_2" x1="81.8135" y1="121.968" x2="10.4119" y2="-59.8359" gradientUnits="userSpaceOnUse">
<stop/>
<stop offset="1" stop-color="white"/>
</linearGradient>
<linearGradient id="paint3_linear_102_2" x1="81.8135" y1="121.968" x2="10.4119" y2="-59.8359" gradientUnits="userSpaceOnUse">
<stop stop-color="#97C3F9"/>
<stop offset="1" stop-color="#93C1F9"/>
</linearGradient>
<linearGradient id="paint4_linear_102_2" x1="46.6668" y1="135.771" x2="-24.7336" y2="-46.0318" gradientUnits="userSpaceOnUse">
<stop/>
<stop offset="1" stop-color="white"/>
</linearGradient>
<linearGradient id="paint5_linear_102_2" x1="46.6668" y1="135.771" x2="-24.7336" y2="-46.0318" gradientUnits="userSpaceOnUse">
<stop stop-color="#97C3F9"/>
<stop offset="1" stop-color="#93C1F9"/>
</linearGradient>
<linearGradient id="paint6_linear_102_2" x1="72.8711" y1="125.479" x2="1.47073" y2="-56.3232" gradientUnits="userSpaceOnUse">
<stop/>
<stop offset="1" stop-color="white"/>
</linearGradient>
<linearGradient id="paint7_linear_102_2" x1="72.8711" y1="125.479" x2="1.47073" y2="-56.3232" gradientUnits="userSpaceOnUse">
<stop stop-color="#97C3F9"/>
<stop offset="1" stop-color="#93C1F9"/>
</linearGradient>
<linearGradient id="paint8_linear_102_2" x1="37.7244" y1="139.283" x2="-33.6772" y2="-42.5204" gradientUnits="userSpaceOnUse">
<stop/>
<stop offset="1" stop-color="white"/>
</linearGradient>
<linearGradient id="paint9_linear_102_2" x1="37.7244" y1="139.283" x2="-33.6772" y2="-42.5204" gradientUnits="userSpaceOnUse">
<stop stop-color="#97C3F9"/>
<stop offset="1" stop-color="#93C1F9"/>
</linearGradient>
<linearGradient id="paint10_linear_102_2" x1="63.9287" y1="128.992" x2="-7.47294" y2="-52.8119" gradientUnits="userSpaceOnUse">
<stop/>
<stop offset="1" stop-color="white"/>
</linearGradient>
<linearGradient id="paint11_linear_102_2" x1="63.9287" y1="128.992" x2="-7.47294" y2="-52.8119" gradientUnits="userSpaceOnUse">
<stop stop-color="#97C3F9"/>
<stop offset="1" stop-color="#93C1F9"/>
</linearGradient>
<linearGradient id="paint12_linear_102_2" x1="28.7821" y1="142.796" x2="-42.6196" y2="-39.0083" gradientUnits="userSpaceOnUse">
<stop/>
<stop offset="1" stop-color="white"/>
</linearGradient>
<linearGradient id="paint13_linear_102_2" x1="28.7821" y1="142.796" x2="-42.6196" y2="-39.0083" gradientUnits="userSpaceOnUse">
<stop stop-color="#97C3F9"/>
<stop offset="1" stop-color="#93C1F9"/>
</linearGradient>
<linearGradient id="paint14_linear_102_2" x1="54.9863" y1="132.504" x2="-16.4153" y2="-49.2999" gradientUnits="userSpaceOnUse">
<stop/>
<stop offset="1" stop-color="white"/>
</linearGradient>
<linearGradient id="paint15_linear_102_2" x1="54.9863" y1="132.504" x2="-16.4153" y2="-49.2999" gradientUnits="userSpaceOnUse">
<stop stop-color="#97C3F9"/>
<stop offset="1" stop-color="#93C1F9"/>
</linearGradient>
<linearGradient id="paint16_linear_102_2" x1="19.8397" y1="146.307" x2="-51.5619" y2="-35.4964" gradientUnits="userSpaceOnUse">
<stop/>
<stop offset="1" stop-color="white"/>
</linearGradient>
<linearGradient id="paint17_linear_102_2" x1="19.8397" y1="146.307" x2="-51.5619" y2="-35.4964" gradientUnits="userSpaceOnUse">
<stop stop-color="#97C3F9"/>
<stop offset="1" stop-color="#93C1F9"/>
</linearGradient>
<linearGradient id="paint18_linear_102_2" x1="46.044" y1="136.016" x2="-25.3576" y2="-45.7879" gradientUnits="userSpaceOnUse">
<stop/>
<stop offset="1" stop-color="white"/>
</linearGradient>
<linearGradient id="paint19_linear_102_2" x1="46.044" y1="136.016" x2="-25.3576" y2="-45.7879" gradientUnits="userSpaceOnUse">
<stop stop-color="#97C3F9"/>
<stop offset="1" stop-color="#93C1F9"/>
</linearGradient>
<radialGradient id="paint20_radial_102_2" cx="0" cy="0" r="1" gradientUnits="userSpaceOnUse" gradientTransform="translate(1445.5 786) rotate(-147.381) scale(103.886)">
<stop stop-color="#019966" stop-opacity="0.6"/>
<stop offset="1" stop-color="white" stop-opacity="0.5"/>
</radialGradient>
<radialGradient id="paint21_radial_102_2" cx="0" cy="0" r="1" gradientUnits="userSpaceOnUse" gradientTransform="translate(706.3 580.272) rotate(-147.381) scale(32.4124)">
<stop stop-color="#019966" stop-opacity="0.6"/>
<stop offset="1" stop-color="white" stop-opacity="0.5"/>
</radialGradient>
<radialGradient id="paint22_radial_102_2" cx="0" cy="0" r="1" gradientUnits="userSpaceOnUse" gradientTransform="translate(59.8 663.432) rotate(-147.381) scale(69.8112)">
<stop stop-color="#019966" stop-opacity="0.6"/>
<stop offset="1" stop-color="white" stop-opacity="0.5"/>
</radialGradient>
<radialGradient id="paint23_radial_102_2" cx="0" cy="0" r="1" gradientUnits="userSpaceOnUse" gradientTransform="translate(932.1 79.704) rotate(-147.381) scale(102.224)">
<stop stop-color="#019966" stop-opacity="0.6"/>
<stop offset="1" stop-color="white" stop-opacity="0.5"/>
</radialGradient>
</defs>
</svg>
