<svg width="1321" height="900" viewBox="0 0 1321 900" fill="none" xmlns="http://www.w3.org/2000/svg">
<path d="M83.6 931.4C72.8 931.4 62.7333 929.667 53.4 926.2C44.2 922.6 36.2 917.533 29.4 911C22.6 904.467 17.2667 896.8 13.4 888C9.66667 879.2 7.8 869.533 7.8 859C7.8 848.467 9.66667 838.8 13.4 830C17.2667 821.2 22.6 813.533 29.4 807C36.3333 800.467 44.4 795.467 53.6 792C62.8 788.4 72.8667 786.6 83.8 786.6C95.9333 786.6 106.867 788.733 116.6 793C126.467 797.133 134.733 803.267 141.4 811.4L120.6 830.6C115.8 825.133 110.467 821.067 104.6 818.4C98.7333 815.6 92.3333 814.2 85.4 814.2C78.8667 814.2 72.8667 815.267 67.4 817.4C61.9333 819.533 57.2 822.6 53.2 826.6C49.2 830.6 46.0667 835.333 43.8 840.8C41.6667 846.267 40.6 852.333 40.6 859C40.6 865.667 41.6667 871.733 43.8 877.2C46.0667 882.667 49.2 887.4 53.2 891.4C57.2 895.4 61.9333 898.467 67.4 900.6C72.8667 902.733 78.8667 903.8 85.4 903.8C92.3333 903.8 98.7333 902.467 104.6 899.8C110.467 897 115.8 892.8 120.6 887.2L141.4 906.4C134.733 914.533 126.467 920.733 116.6 925C106.867 929.267 95.8667 931.4 83.6 931.4ZM254.35 931.4C243.283 931.4 233.017 929.6 223.55 926C214.217 922.4 206.083 917.333 199.15 910.8C192.35 904.267 187.017 896.6 183.15 887.8C179.417 879 177.55 869.4 177.55 859C177.55 848.6 179.417 839 183.15 830.2C187.017 821.4 192.417 813.733 199.35 807.2C206.283 800.667 214.417 795.6 223.75 792C233.083 788.4 243.217 786.6 254.15 786.6C265.217 786.6 275.35 788.4 284.55 792C293.883 795.6 301.95 800.667 308.75 807.2C315.683 813.733 321.083 821.4 324.95 830.2C328.817 838.867 330.75 848.467 330.75 859C330.75 869.4 328.817 879.067 324.95 888C321.083 896.8 315.683 904.467 308.75 911C301.95 917.4 293.883 922.4 284.55 926C275.35 929.6 265.283 931.4 254.35 931.4ZM254.15 903.8C260.417 903.8 266.15 902.733 271.35 900.6C276.683 898.467 281.35 895.4 285.35 891.4C289.35 887.4 292.417 882.667 294.55 877.2C296.817 871.733 297.95 865.667 297.95 859C297.95 852.333 296.817 846.267 294.55 840.8C292.417 835.333 289.35 830.6 285.35 826.6C281.483 822.6 276.883 819.533 271.55 817.4C266.217 815.267 260.417 814.2 254.15 814.2C247.883 814.2 242.083 815.267 236.75 817.4C231.55 819.533 226.95 822.6 222.95 826.6C218.95 830.6 215.817 835.333 213.55 840.8C211.417 846.267 210.35 852.333 210.35 859C210.35 865.533 211.417 871.6 213.55 877.2C215.817 882.667 218.883 887.4 222.75 891.4C226.75 895.4 231.417 898.467 236.75 900.6C242.083 902.733 247.883 903.8 254.15 903.8ZM381.1 929V789H407.9L467.5 887.8H453.3L511.9 789H538.5L538.9 929H508.5L508.3 835.6H513.9L467.1 914.2H452.5L404.7 835.6H411.5V929H381.1ZM598.116 929V789H658.716C671.249 789 682.049 791.067 691.116 795.2C700.182 799.2 707.182 805 712.116 812.6C717.049 820.2 719.516 829.267 719.516 839.8C719.516 850.2 717.049 859.2 712.116 866.8C707.182 874.4 700.182 880.267 691.116 884.4C682.049 888.4 671.249 890.4 658.716 890.4H616.116L630.516 875.8V929H598.116ZM630.516 879.4L616.116 864H656.916C666.916 864 674.382 861.867 679.316 857.6C684.249 853.333 686.716 847.4 686.716 839.8C686.716 832.067 684.249 826.067 679.316 821.8C674.382 817.533 666.916 815.4 656.916 815.4H616.116L630.516 800V879.4ZM743.216 929L805.616 789H837.616L900.216 929H866.216L815.016 805.4H827.816L776.416 929H743.216ZM774.416 899L783.016 874.4H855.016L863.816 899H774.416ZM940.741 929V789H967.541L1050.14 889.8H1037.14V789H1069.14V929H1042.54L959.741 828.2H972.741V929H940.741ZM1163.06 929V871.8L1170.46 891.4L1108.86 789H1143.26L1190.46 867.6H1170.66L1218.06 789H1249.86L1188.26 891.4L1195.46 871.8V929H1163.06Z" fill="#F7F9FC"/>
<path d="M985.546 -170.27L1553.8 110.771L1192.3 841.705C1177.85 870.913 1142.46 882.88 1113.26 868.435L687.527 657.881C638.022 633.397 617.738 573.418 642.222 523.913L985.546 -170.27Z" fill="url(#paint0_linear_109_8)" fill-opacity="0.7"/>
<defs>
<linearGradient id="paint0_linear_109_8" x1="1269.67" y1="-29.7497" x2="882.015" y2="754.07" gradientUnits="userSpaceOnUse">
<stop stop-color="#019966"/>
<stop offset="1" stop-color="#095073" stop-opacity="0"/>
</linearGradient>
</defs>
</svg>
